{
    "asset" : {
        "generator" : "Khronos glTF Blender I/O v1.2.75",
        "version" : "2.0"
    },
    "scene" : 0,
    "scenes" : [
        {
            "name" : "Scene",
            "nodes" : [
                0
            ]
        }
    ],
    "nodes" : [
        {
            "mesh" : 0,
            "name" : "Chair",
            "rotation" : [
                0.7071067690849304,
                0,
                0,
                0.7071067690849304
            ]
        }
    ],
    "materials" : [
        {
            "doubleSided" : true,
            "emissiveFactor" : [
                0,
                0,
                0
            ],
            "name" : "TableTop.001",
            "pbrMetallicRoughness" : {
                "baseColorFactor" : [
                    0.47911301255226135,
                    0.4600990116596222,
                    0.19971999526023865,
                    1
                ],
                "metallicFactor" : 0,
                "roughnessFactor" : 0.5
            }
        },
        {
            "doubleSided" : true,
            "emissiveFactor" : [
                0,
                0,
                0
            ],
            "name" : "TableLegs.001",
            "pbrMetallicRoughness" : {
                "baseColorFactor" : [
                    0.0765639990568161,
                    0.050266001373529434,
                    0.025203999131917953,
                    1
                ],
                "metallicFactor" : 0,
                "roughnessFactor" : 0.4000000059604645
            }
        }
    ],
    "meshes" : [
        {
            "name" : "Plane.001",
            "primitives" : [
                {
                    "attributes" : {
                        "POSITION" : 0,
                        "NORMAL" : 1,
                        "TEXCOORD_0" : 2
                    },
                    "indices" : 3,
                    "material" : 0
                },
                {
                    "attributes" : {
                        "POSITION" : 4,
                        "NORMAL" : 5,
                        "TEXCOORD_0" : 6
                    },
                    "indices" : 7,
                    "material" : 1
                }
            ]
        }
    ],
    "accessors" : [
        {
            "bufferView" : 0,
            "componentType" : 5126,
            "count" : 404,
            "max" : [
                0.5,
                0.5,
                -0.5890949964523315
            ],
            "min" : [
                -0.5,
                -0.5,
                -1.7000000476837158
            ],
            "type" : "VEC3"
        },
        {
            "bufferView" : 1,
            "componentType" : 5126,
            "count" : 404,
            "type" : "VEC3"
        },
        {
            "bufferView" : 2,
            "componentType" : 5126,
            "count" : 404,
            "type" : "VEC2"
        },
        {
            "bufferView" : 3,
            "componentType" : 5123,
            "count" : 1284,
            "type" : "SCALAR"
        },
        {
            "bufferView" : 4,
            "componentType" : 5126,
            "count" : 104,
            "max" : [
                0.39981600642204285,
                0.40054699778556824,
                0
            ],
            "min" : [
                -0.39981600642204285,
                -0.40054699778556824,
                -0.5890949964523315
            ],
            "type" : "VEC3"
        },
        {
            "bufferView" : 5,
            "componentType" : 5126,
            "count" : 104,
            "type" : "VEC3"
        },
        {
            "bufferView" : 6,
            "componentType" : 5126,
            "count" : 104,
            "type" : "VEC2"
        },
        {
            "bufferView" : 7,
            "componentType" : 5123,
            "count" : 264,
            "type" : "SCALAR"
        }
    ],
    "bufferViews" : [
        {
            "buffer" : 0,
            "byteLength" : 4848,
            "byteOffset" : 0
        },
        {
            "buffer" : 0,
            "byteLength" : 4848,
            "byteOffset" : 4848
        },
        {
            "buffer" : 0,
            "byteLength" : 3232,
            "byteOffset" : 9696
        },
        {
            "buffer" : 0,
            "byteLength" : 2568,
            "byteOffset" : 12928
        },
        {
            "buffer" : 0,
            "byteLength" : 1248,
            "byteOffset" : 15496
        },
        {
            "buffer" : 0,
            "byteLength" : 1248,
            "byteOffset" : 16744
        },
        {
            "buffer" : 0,
            "byteLength" : 832,
            "byteOffset" : 17992
        },
        {
            "buffer" : 0,
            "byteLength" : 528,
            "byteOffset" : 18824
        }
    ],
    "buffers" : [
        {
            "byteLength" : 19352,
            "uri" : "chair_separated.bin"
        }
    ]
}
