{
  "asset": {
    "generator": "Khronos glTF Blender I/O v3.3.32",
    "version": "2.0"
  },
  "scene": 0,
  "scenes": [
    {
      "name": "Scene",
      "nodes": [
        0
      ]
    }
  ],
  "nodes": [
    {
      "mesh": 0,
      "name": "crowbar_01"
    }
  ],
  "materials": [
    {
      "doubleSided": true,
      "name": "crowbar_01",
      "normalTexture": {
        "index": 0
      },
      "pbrMetallicRoughness": {
        "baseColorTexture": {
          "index": 1
        },
        "metallicRoughnessTexture": {
          "index": 2
        }
      }
    }
  ],
  "meshes": [
    {
      "name": "Cube.001",
      "primitives": [
        {
          "attributes": {
            "POSITION": 0,
            "NORMAL": 1,
            "TEXCOORD_0": 2
          },
          "indices": 3,
          "material": 0
        }
      ]
    }
  ],
  "textures": [
    {
      "sampler": 0,
      "source": 0
    },
    {
      "sampler": 0,
      "source": 1
    },
    {
      "sampler": 0,
      "source": 2
    }
  ],
  "images": [
    {
      "mimeType": "image/jpeg",
      "name": "crowbar_01_nor_gl",
      "uri": "textures/crowbar_01_nor_gl_1k.jpg"
    },
    {
      "mimeType": "image/jpeg",
      "name": "crowbar_01_diff",
      "uri": "textures/crowbar_01_diff_1k.jpg"
    },
    {
      "mimeType": "image/jpeg",
      "name": "crowbar_01_metal-crowbar_01_rough",
      "uri": "textures/crowbar_01_arm_1k.jpg"
    }
  ],
  "accessors": [
    {
      "bufferView": 0,
      "componentType": 5126,
      "count": 1402,
      "max": [
        0.024949701502919197,
        0.2594568431377411,
        0.09470745921134949
      ],
      "min": [
        -0.015462018549442291,
        -0.2959069311618805,
        -0.03288117051124573
      ],
      "type": "VEC3"
    },
    {
      "bufferView": 1,
      "componentType": 5126,
      "count": 1402,
      "type": "VEC3"
    },
    {
      "bufferView": 2,
      "componentType": 5126,
      "count": 1402,
      "type": "VEC2"
    },
    {
      "bufferView": 3,
      "componentType": 5123,
      "count": 6900,
      "type": "SCALAR"
    }
  ],
  "bufferViews": [
    {
      "buffer": 0,
      "byteLength": 16824,
      "byteOffset": 0,
      "target": 34962
    },
    {
      "buffer": 0,
      "byteLength": 16824,
      "byteOffset": 16824,
      "target": 34962
    },
    {
      "buffer": 0,
      "byteLength": 11216,
      "byteOffset": 33648,
      "target": 34962
    },
    {
      "buffer": 0,
      "byteLength": 13800,
      "byteOffset": 44864,
      "target": 34963
    }
  ],
  "samplers": [
    {
      "magFilter": 9729,
      "minFilter": 9987
    }
  ],
  "buffers": [
    {
      "byteLength": 58664,
      "uri": "crowbar_01.bin"
    }
  ]
}