{
  "asset": {
    "generator": "Khronos glTF Blender I/O v3.3.32",
    "version": "2.0"
  },
  "scene": 0,
  "scenes": [
    {
      "name": "Scene",
      "nodes": [
        0
      ]
    }
  ],
  "nodes": [
    {
      "mesh": 0,
      "name": "handsaw_wood"
    }
  ],
  "materials": [
    {
      "doubleSided": true,
      "name": "handsaw_wood",
      "normalTexture": {
        "index": 0
      },
      "pbrMetallicRoughness": {
        "baseColorTexture": {
          "index": 1
        },
        "metallicRoughnessTexture": {
          "index": 2
        }
      }
    }
  ],
  "meshes": [
    {
      "name": "Plane.013",
      "primitives": [
        {
          "attributes": {
            "POSITION": 0,
            "NORMAL": 1,
            "TEXCOORD_0": 2
          },
          "indices": 3,
          "material": 0
        }
      ]
    }
  ],
  "textures": [
    {
      "sampler": 0,
      "source": 0
    },
    {
      "sampler": 0,
      "source": 1
    },
    {
      "sampler": 0,
      "source": 2
    }
  ],
  "images": [
    {
      "mimeType": "image/jpeg",
      "name": "handsaw_wood_nor_gl",
      "uri": "textures/handsaw_wood_nor_gl_1k.jpg"
    },
    {
      "mimeType": "image/jpeg",
      "name": "handsaw_wood_diff",
      "uri": "textures/handsaw_wood_diff_1k.jpg"
    },
    {
      "mimeType": "image/jpeg",
      "name": "handsaw_wood_metal-handsaw_wood_rough",
      "uri": "textures/handsaw_wood_arm_1k.jpg"
    }
  ],
  "accessors": [
    {
      "bufferView": 0,
      "componentType": 5126,
      "count": 2323,
      "max": [
        0.020298300310969353,
        0.08159002661705017,
        0.5462324023246765
      ],
      "min": [
        -0.02053544484078884,
        -0.08493000268936157,
        -0.08674678206443787
      ],
      "type": "VEC3"
    },
    {
      "bufferView": 1,
      "componentType": 5126,
      "count": 2323,
      "type": "VEC3"
    },
    {
      "bufferView": 2,
      "componentType": 5126,
      "count": 2323,
      "type": "VEC2"
    },
    {
      "bufferView": 3,
      "componentType": 5123,
      "count": 7644,
      "type": "SCALAR"
    }
  ],
  "bufferViews": [
    {
      "buffer": 0,
      "byteLength": 27876,
      "byteOffset": 0,
      "target": 34962
    },
    {
      "buffer": 0,
      "byteLength": 27876,
      "byteOffset": 27876,
      "target": 34962
    },
    {
      "buffer": 0,
      "byteLength": 18584,
      "byteOffset": 55752,
      "target": 34962
    },
    {
      "buffer": 0,
      "byteLength": 15288,
      "byteOffset": 74336,
      "target": 34963
    }
  ],
  "samplers": [
    {
      "magFilter": 9729,
      "minFilter": 9987
    }
  ],
  "buffers": [
    {
      "byteLength": 89624,
      "uri": "handsaw_wood.bin"
    }
  ]
}