{
  "asset": {
    "generator": "Khronos glTF Blender I/O v3.3.32",
    "version": "2.0"
  },
  "extensionsUsed": [
    "KHR_materials_specular",
    "KHR_materials_ior"
  ],
  "scene": 0,
  "scenes": [
    {
      "name": "Scene",
      "nodes": [
        0
      ]
    }
  ],
  "nodes": [
    {
      "mesh": 0,
      "name": "watering_can_metal_01"
    }
  ],
  "materials": [
    {
      "doubleSided": true,
      "extensions": {
        "KHR_materials_specular": {
          "specularColorFactor": [
            0,
            0,
            0
          ]
        },
        "KHR_materials_ior": {
          "ior": 1.4500000476837158
        }
      },
      "name": "watering_can_metal_01",
      "normalTexture": {
        "index": 0
      },
      "pbrMetallicRoughness": {
        "baseColorTexture": {
          "index": 1
        },
        "metallicRoughnessTexture": {
          "index": 2
        }
      }
    }
  ],
  "meshes": [
    {
      "name": "Cylinder",
      "primitives": [
        {
          "attributes": {
            "POSITION": 0,
            "NORMAL": 1,
            "TEXCOORD_0": 2
          },
          "indices": 3,
          "material": 0
        }
      ]
    }
  ],
  "textures": [
    {
      "sampler": 0,
      "source": 0
    },
    {
      "sampler": 0,
      "source": 1
    },
    {
      "sampler": 0,
      "source": 2
    }
  ],
  "images": [
    {
      "mimeType": "image/jpeg",
      "name": "watering_can_metal_01_nor_gl",
      "uri": "textures/watering_can_metal_01_nor_gl_1k.jpg"
    },
    {
      "mimeType": "image/jpeg",
      "name": "watering_can_metal_01_diff",
      "uri": "textures/watering_can_metal_01_diff_1k.jpg"
    },
    {
      "mimeType": "image/jpeg",
      "name": "watering_can_metal_01_metal-watering_can_metal_01_rough",
      "uri": "textures/watering_can_metal_01_arm_1k.jpg"
    }
  ],
  "accessors": [
    {
      "bufferView": 0,
      "componentType": 5126,
      "count": 7741,
      "max": [
        0.09573400020599365,
        0.19577406346797943,
        0.2776298224925995
      ],
      "min": [
        -0.09528457373380661,
        -0.0010444645304232836,
        -0.17470625042915344
      ],
      "type": "VEC3"
    },
    {
      "bufferView": 1,
      "componentType": 5126,
      "count": 7741,
      "type": "VEC3"
    },
    {
      "bufferView": 2,
      "componentType": 5126,
      "count": 7741,
      "type": "VEC2"
    },
    {
      "bufferView": 3,
      "componentType": 5123,
      "count": 35511,
      "type": "SCALAR"
    }
  ],
  "bufferViews": [
    {
      "buffer": 0,
      "byteLength": 92892,
      "byteOffset": 0,
      "target": 34962
    },
    {
      "buffer": 0,
      "byteLength": 92892,
      "byteOffset": 92892,
      "target": 34962
    },
    {
      "buffer": 0,
      "byteLength": 61928,
      "byteOffset": 185784,
      "target": 34962
    },
    {
      "buffer": 0,
      "byteLength": 71022,
      "byteOffset": 247712,
      "target": 34963
    }
  ],
  "samplers": [
    {
      "magFilter": 9729,
      "minFilter": 9987
    }
  ],
  "buffers": [
    {
      "byteLength": 318736,
      "uri": "watering_can_metal_01.bin"
    }
  ]
}